<!DOCTYPE svg PUBLIC "-//W3C//DTD SVG 1.1//EN" "http://www.w3.org/Graphics/SVG/1.1/DTD/svg11.dtd">
<!-- Uploaded to: SVG Repo, www.svgrepo.com, Transformed by: SVG Repo Mixer Tools -->
<svg width="800px" height="800px" viewBox="0 0 24 24" fill="none" xmlns="http://www.w3.org/2000/svg">
<g id="SVGRepo_bgCarrier" stroke-width="0"/>
<g id="SVGRepo_tracerCarrier" stroke-linecap="round" stroke-linejoin="round"/>
<g id="SVGRepo_iconCarrier"> <path d="M6.95888 6.92205C6.95888 6.50783 6.62309 6.17205 6.20888 6.17205C5.79466 6.17205 5.45888 6.50783 5.45888 6.92205H6.95888ZM6.20888 15.386H5.45886L5.45889 15.3906L6.20888 15.386ZM6.58352 16.2962L6.05039 16.8238L6.05039 16.8238L6.58352 16.2962ZM7.47638 16.667L7.47638 15.917L7.4698 15.9171L7.47638 16.667ZM17.2576 16.667L17.2642 15.917H17.2576V16.667ZM18.1504 16.2962L18.6836 16.8238L18.6836 16.8238L18.1504 16.2962ZM18.5251 15.386L19.2751 15.3906V15.386H18.5251ZM18.5251 8.20005L19.2751 8.20005L19.2751 8.19554L18.5251 8.20005ZM18.1504 7.28985L17.6173 7.81737L17.6173 7.81737L18.1504 7.28985ZM17.2576 6.91905L17.2576 7.66908L17.2642 7.66902L17.2576 6.91905ZM12.7804 6.16905C12.3662 6.16905 12.0304 6.50483 12.0304 6.91905C12.0304 7.33326 12.3662 7.66905 12.7804 7.66905V6.16905ZM5.45985 6.91905C5.45985 7.33326 5.79564 7.66905 6.20985 7.66905C6.62407 7.66905 6.95985 7.33326 6.95985 6.91905H5.45985ZM6.20985 6.28105L5.45985 6.27652V6.28105H6.20985ZM6.58346 5.37192L7.1172 5.89882L7.1172 5.89882L6.58346 5.37192ZM7.47443 5.00005L7.46964 5.75005H7.47443V5.00005ZM11.5148 5.00005L11.5148 5.75008L11.5214 5.75002L11.5148 5.00005ZM12.4077 5.37085L12.9408 4.84334L12.9408 4.84334L12.4077 5.37085ZM12.7823 6.28105L13.5323 6.28105L13.5323 6.27654L12.7823 6.28105ZM12.0323 6.92205C12.0323 7.33626 12.3681 7.67205 12.7823 7.67205C13.1965 7.67205 13.5323 7.33626 13.5323 6.92205H12.0323ZM6.2118 6.17205C5.79759 6.17205 5.4618 6.50783 5.4618 6.92205C5.4618 7.33626 5.79759 7.67205 6.2118 7.67205V6.17205ZM12.7804 7.67205C13.1946 7.67205 13.5304 7.33626 13.5304 6.92205C13.5304 6.50783 13.1946 6.17205 12.7804 6.17205V7.67205ZM16.9663 16.667C16.9663 16.2528 16.6305 15.917 16.2163 15.917C15.8021 15.917 15.4663 16.2528 15.4663 16.667H16.9663ZM16.2163 17.667L15.4662 17.667L15.4664 17.6777L16.2163 17.667ZM15.8531 18.6028L16.3971 19.1192L16.3971 19.1192L15.8531 18.6028ZM14.9507 19L14.9507 19.7501L14.96 19.75L14.9507 19ZM5.16758 19L5.15943 19.75H5.16758V19ZM4.2653 18.605L3.72256 19.1226L3.72256 19.1226L4.2653 18.605ZM3.90008 17.671L4.65008 17.6794V17.671H3.90008ZM3.90008 10.218L4.65013 10.218L4.65003 10.2097L3.90008 10.218ZM4.2653 9.28414L3.72256 8.76652L3.72256 8.76652L4.2653 9.28414ZM5.16758 8.88905L5.16758 8.139L5.15943 8.13909L5.16758 8.88905ZM6.20888 9.63905C6.62309 9.63905 6.95888 9.30326 6.95888 8.88905C6.95888 8.47483 6.62309 8.13905 6.20888 8.13905V9.63905ZM5.45888 6.92205V15.386H6.95888V6.92205H5.45888ZM5.45889 15.3906C5.46211 15.9261 5.6728 16.4421 6.05039 16.8238L7.11665 15.7687C7.01866 15.6697 6.95976 15.5308 6.95886 15.3815L5.45889 15.3906ZM6.05039 16.8238C6.42861 17.206 6.94368 17.4217 7.48295 17.417L7.4698 15.9171C7.34143 15.9182 7.21401 15.8671 7.11665 15.7687L6.05039 16.8238ZM7.47638 17.417H17.2576V15.917H7.47638V17.417ZM17.251 17.417C17.7903 17.4217 18.3053 17.206 18.6836 16.8238L17.6173 15.7687C17.52 15.8671 17.3925 15.9182 17.2642 15.9171L17.251 17.417ZM18.6836 16.8238C19.0612 16.4421 19.2718 15.9261 19.2751 15.3906L17.7751 15.3815C17.7742 15.5308 17.7153 15.6697 17.6173 15.7687L18.6836 16.8238ZM19.2751 15.386V8.20005H17.7751V15.386H19.2751ZM19.2751 8.19554C19.2718 7.65998 19.0612 7.14395 18.6836 6.76234L17.6173 7.81737C17.7153 7.9164 17.7742 8.05534 17.7751 8.20456L19.2751 8.19554ZM18.6836 6.76234C18.3053 6.38009 17.7903 6.16435 17.251 6.16908L17.2642 7.66902C17.3925 7.66789 17.5199 7.71898 17.6173 7.81737L18.6836 6.76234ZM17.2576 6.16905H12.7804V7.66905H17.2576V6.16905ZM6.95985 6.91905V6.28105H5.45985V6.91905H6.95985ZM6.95984 6.28557C6.96074 6.13658 7.01946 5.99783 7.1172 5.89882L6.04972 4.84503C5.67316 5.22648 5.46309 5.74178 5.45987 6.27652L6.95984 6.28557ZM7.1172 5.89882C7.21431 5.80045 7.34146 5.74921 7.46964 5.75003L7.47922 4.25006C6.94076 4.24662 6.42692 4.46293 6.04972 4.84503L7.1172 5.89882ZM7.47443 5.75005H11.5148V4.25005H7.47443V5.75005ZM11.5214 5.75002C11.6498 5.74889 11.7772 5.79998 11.8746 5.89837L12.9408 4.84334C12.5626 4.46109 12.0475 4.24535 11.5082 4.25008L11.5214 5.75002ZM11.8746 5.89837C11.9725 5.99741 12.0314 6.13634 12.0323 6.28556L13.5323 6.27654C13.5291 5.74098 13.3184 5.22495 12.9408 4.84334L11.8746 5.89837ZM12.0323 6.28105V6.92205H13.5323V6.28105H12.0323ZM6.2118 7.67205H12.7804V6.17205H6.2118V7.67205ZM15.4663 16.667V17.667H16.9663V16.667H15.4663ZM15.4664 17.6777C15.4686 17.8335 15.41 17.9803 15.3092 18.0865L16.3971 19.1192C16.7712 18.7252 16.9739 18.1986 16.9662 17.6564L15.4664 17.6777ZM15.3092 18.0864C15.2091 18.1919 15.0763 18.2484 14.9414 18.2501L14.96 19.75C15.5057 19.7432 16.0223 19.5139 16.3971 19.1192L15.3092 18.0864ZM14.9507 18.25H5.16758V19.75H14.9507V18.25ZM5.17572 18.2501C5.04099 18.2486 4.90826 18.1924 4.80804 18.0873L3.72256 19.1226C4.0978 19.516 4.61425 19.7441 5.15943 19.75L5.17572 18.2501ZM4.80804 18.0873C4.70719 17.9816 4.64829 17.8351 4.65003 17.6794L3.15013 17.6627C3.14407 18.2043 3.34793 18.7298 3.72256 19.1226L4.80804 18.0873ZM4.65008 17.671V10.218H3.15008V17.671H4.65008ZM4.65003 10.2097C4.64829 10.0539 4.70719 9.9075 4.80804 9.80176L3.72256 8.76652C3.34793 9.15932 3.14407 9.6848 3.15013 10.2264L4.65003 10.2097ZM4.80804 9.80176C4.90826 9.69667 5.04099 9.64047 5.17572 9.639L5.15943 8.13909C4.61425 8.14501 4.0978 8.37307 3.72256 8.76652L4.80804 9.80176ZM5.16758 9.63905H6.20888V8.13905H5.16758V9.63905Z" fill="#0d060f"/> </g>
</svg>